# xmcd CD database generated by RipIT
#
# Track frame offsets:
# 150
# 17167
# 37597
# 58354
# 81138
# 85352
# 102796
# 123702
#
# Disc length: 1900 seconds
#
# Revision: 0
# Processed by: cddbd v1.5.2PL0 Copyright (c) Steve Scherf et al.
# Submitted via: RipIT 3.6.0 www.suwald.com/ripit/ripit.html on 2009-01-21 at 17:19
#
DISCID=60076a08
DTITLE=PeeWee Bluesgang - Our blue Side
DYEAR=2003
DGENRE=
TTITLE0=ABC-Blues
TTITLE1=Wake up in the Morning
TTITLE2=Trouble
TTITLE3=Further on up the Road
TTITLE4=I still love You
TTITLE5=The Seeker
TTITLE6=Bad bad Woman
TTITLE7=Heavy's Blues
EXTD=
EXTT0=
EXTT1=
EXTT2=
EXTT3=
EXTT4=
EXTT5=
EXTT6=
EXTT7=
PLAYORDER=
